<svg width="42" height="40" viewBox="0 0 42 40" fill="none" xmlns="http://www.w3.org/2000/svg">
<path d="M28.3325 3.33334H13.6675C7.2975 3.33334 3.5 6.95001 3.5 13.0167V26.9667C3.5 33.05 7.2975 36.6667 13.6675 36.6667H28.315C34.685 36.6667 38.4825 33.05 38.4825 26.9833V13.0167C38.5 6.95001 34.7025 3.33334 28.3325 3.33334ZM29.75 28.75H12.25C11.5325 28.75 10.9375 28.1833 10.9375 27.5C10.9375 26.8167 11.5325 26.25 12.25 26.25H29.75C30.4675 26.25 31.0625 26.8167 31.0625 27.5C31.0625 28.1833 30.4675 28.75 29.75 28.75ZM29.75 21.25H12.25C11.5325 21.25 10.9375 20.6833 10.9375 20C10.9375 19.3167 11.5325 18.75 12.25 18.75H29.75C30.4675 18.75 31.0625 19.3167 31.0625 20C31.0625 20.6833 30.4675 21.25 29.75 21.25ZM29.75 13.75H12.25C11.5325 13.75 10.9375 13.1833 10.9375 12.5C10.9375 11.8167 11.5325 11.25 12.25 11.25H29.75C30.4675 11.25 31.0625 11.8167 31.0625 12.5C31.0625 13.1833 30.4675 13.75 29.75 13.75Z" fill="black"/>
</svg>
