<svg fill="none" height="24" viewBox="0 0 24 24" width="24" xmlns="http://www.w3.org/2000/svg"><path clip-rule="evenodd" d="m5.11628 11.6279c0 3.5963 2.91535 6.5116 6.51162 6.5116 3.5963 0 6.5116-2.9153 6.5116-6.5116 0-3.59627-2.9153-6.51162-6.5116-6.51162-3.59627 0-6.51162 2.91535-6.51162 6.51162zm6.51162 7.6279c-4.21277 0-7.6279-3.4151-7.6279-7.6279 0-4.21277 3.41513-7.6279 7.6279-7.6279 4.2128 0 7.6279 3.41513 7.6279 7.6279 0 1.9055-.6987 3.6478-1.8539 4.9847l2.4346 2.4346c.218.218.218.5714 0 .7893-.2179.218-.5713.218-.7893 0l-2.4346-2.4346c-1.3369 1.1552-3.0792 1.8539-4.9847 1.8539z" fill="#28303f" fill-rule="evenodd"/></svg>