<svg width="20" height="19" viewBox="0 0 20 19" fill="none" xmlns="http://www.w3.org/2000/svg">
<circle cx="10" cy="9" r="5" fill="#D9D9D9"/>
<circle cx="10" cy="9" r="5" fill="white"/>
<path fill-rule="evenodd" clip-rule="evenodd" d="M1.66669 9C1.66669 4.3975 5.39752 0.666664 10 0.666664C14.6025 0.666664 18.3334 4.3975 18.3334 9C18.3334 13.6025 14.6025 17.3333 10 17.3333C5.39752 17.3333 1.66669 13.6025 1.66669 9ZM7.50002 8.16666C7.27901 8.16666 7.06705 8.25446 6.91076 8.41074C6.75448 8.56702 6.66669 8.77898 6.66669 9C6.66669 9.22101 6.75448 9.43297 6.91076 9.58925C7.06705 9.74553 7.27901 9.83333 7.50002 9.83333H12.5C12.721 9.83333 12.933 9.74553 13.0893 9.58925C13.2456 9.43297 13.3334 9.22101 13.3334 9C13.3334 8.77898 13.2456 8.56702 13.0893 8.41074C12.933 8.25446 12.721 8.16666 12.5 8.16666H7.50002Z" fill="#0057FF"/>
</svg>
