<svg width="20" height="19" viewBox="0 0 20 19" fill="none" xmlns="http://www.w3.org/2000/svg">
<g clip-path="url(#clip0_17_17)">
<path d="M15 9C15 11.7614 12.7614 14 10 14C7.23858 14 5 11.7614 5 9C5 6.23858 7.23858 4 10 4C12.7614 4 15 6.23858 15 9Z" fill="white"/>
<path d="M10 0.666664C8.35185 0.666664 6.74068 1.15541 5.37027 2.07108C3.99986 2.98676 2.93176 4.28825 2.30103 5.81097C1.6703 7.33369 1.50527 9.00924 1.82681 10.6258C2.14836 12.2423 2.94203 13.7271 4.10747 14.8926C5.27291 16.058 6.75776 16.8517 8.37427 17.1732C9.99078 17.4948 11.6663 17.3297 13.1891 16.699C14.7118 16.0683 16.0133 15.0002 16.9289 13.6298C17.8446 12.2593 18.3334 10.6482 18.3334 9C18.3334 7.90565 18.1178 6.82202 17.699 5.81097C17.2802 4.79992 16.6664 3.88126 15.8926 3.10744C15.1188 2.33362 14.2001 1.71979 13.1891 1.301C12.178 0.882212 11.0944 0.666664 10 0.666664ZM12.5 9.83333H10.8334V11.5C10.8334 11.721 10.7456 11.933 10.5893 12.0893C10.433 12.2455 10.221 12.3333 10 12.3333C9.77901 12.3333 9.56705 12.2455 9.41077 12.0893C9.25449 11.933 9.16669 11.721 9.16669 11.5V9.83333H7.50002C7.27901 9.83333 7.06705 9.74553 6.91077 9.58925C6.75449 9.43297 6.66669 9.22101 6.66669 9C6.66669 8.77898 6.75449 8.56702 6.91077 8.41074C7.06705 8.25446 7.27901 8.16666 7.50002 8.16666H9.16669V6.5C9.16669 6.27898 9.25449 6.06702 9.41077 5.91074C9.56705 5.75446 9.77901 5.66666 10 5.66666C10.221 5.66666 10.433 5.75446 10.5893 5.91074C10.7456 6.06702 10.8334 6.27898 10.8334 6.5V8.16666H12.5C12.721 8.16666 12.933 8.25446 13.0893 8.41074C13.2456 8.56702 13.3334 8.77898 13.3334 9C13.3334 9.22101 13.2456 9.43297 13.0893 9.58925C12.933 9.74553 12.721 9.83333 12.5 9.83333Z" fill="#0057FF"/>
</g>
<defs>
<clipPath id="clip0_17_17">
<rect width="20" height="20" fill="white" transform="translate(0 -1)"/>
</clipPath>
</defs>
</svg>
