<svg width="60" height="60" viewBox="0 0 60 60" fill="none" xmlns="http://www.w3.org/2000/svg">
<g clip-path="url(#clip0_3_343)">
<path d="M30 0C13.4314 0 0 13.4314 0 30C0 46.5686 13.4314 60 30 60C46.5686 60 60 46.5686 60 30C60 13.4314 46.5686 0 30 0ZM14.8792 12.6746L20.2185 14.3518C20.9254 14.584 21.3962 15.2403 21.4783 15.9118L21.7786 18.8525L45.9558 21.5514C46.994 21.7525 47.7234 22.6898 47.5781 23.6535L46.0767 32.1129C45.8856 32.9977 45.1527 33.6043 44.3372 33.6143H22.8589L22.4377 36.013H42.8357C43.9023 36.0506 44.6836 36.8628 44.6961 37.8111C44.6518 38.893 43.7798 39.6012 42.8357 39.6129H20.2771C19.1393 39.5188 18.304 38.6171 18.479 37.5145L19.4385 32.2337L17.937 17.4719L13.7988 16.1536C13.3188 15.9936 12.9585 15.6927 12.7185 15.2527C12.2644 14.3011 12.6886 13.2474 13.4986 12.7917C13.9609 12.5514 14.4124 12.5215 14.8792 12.6746ZM23.0091 40.6494C24.5624 40.6494 25.8216 41.9086 25.8216 43.4619C25.8216 45.0151 24.5624 46.2744 23.0091 46.2744C21.4559 46.2744 20.1966 45.0151 20.1966 43.4619C20.1966 41.9086 21.4557 40.6494 23.0091 40.6494ZM39.5178 40.6494C41.0711 40.6494 42.3303 41.9086 42.3303 43.4619C42.3303 45.0151 41.0711 46.2744 39.5178 46.2744C37.9646 46.2744 36.7053 45.0151 36.7053 43.4619C36.7053 41.9086 37.9646 40.6494 39.5178 40.6494Z" fill="#0057FF"/>
</g>
<defs>
<clipPath id="clip0_3_343">
<rect width="60" height="60" fill="white"/>
</clipPath>
</defs>
</svg>
