<svg width="40" height="40" viewBox="0 0 40 40" fill="none" xmlns="http://www.w3.org/2000/svg">
<path d="M20 3.33334C10.8334 3.33334 3.33337 10.8333 3.33337 20C3.33337 29.1667 10.8334 36.6667 20 36.6667C29.1667 36.6667 36.6667 29.1667 36.6667 20C36.6667 10.8333 29.1667 3.33334 20 3.33334ZM26.1667 23.8333C26.8334 24.5 26.8334 25.5 26.1667 26.1667C25.5 26.8333 24.5 26.8333 23.8334 26.1667L20 22.3333L16.1667 26.1667C15.5 26.8333 14.5 26.8333 13.8334 26.1667C13.1667 25.5 13.1667 24.5 13.8334 23.8333L17.6667 20L13.8334 16.1667C13.1667 15.5 13.1667 14.5 13.8334 13.8333C14.5 13.1667 15.5 13.1667 16.1667 13.8333L20 17.6667L23.8334 13.8333C24.5 13.1667 25.5 13.1667 26.1667 13.8333C26.8334 14.5 26.8334 15.5 26.1667 16.1667L22.3334 20L26.1667 23.8333Z" fill="black"/>
</svg>
