<svg width="82" height="82" viewBox="0 0 82 82" fill="none" xmlns="http://www.w3.org/2000/svg">
<path d="M68.5247 42.1104C68.4529 45.7662 69.2422 47.7035 72.2488 47.7035C75.2623 47.7035 75.6928 44.4064 75.6928 41.8952C75.6928 39.3873 75.1188 36.9512 71.9652 36.9512C70.028 36.9512 68.5964 38.4546 68.5247 42.1104ZM62.4293 57.3829V32.6463H68.5964V35.4684C68.8185 34.9901 68.9723 34.6621 69.454 34.0813C69.8708 33.579 71.0325 32.1474 74.1143 32.1474C77.1962 32.1474 82 34.2999 82 41.8952C82 47.7718 79.13 52.0768 74.1861 52.0768C71.463 52.0768 70.2433 51.127 69.5258 50.5701C69.195 50.3316 68.9053 50.0408 68.6682 49.7091V57.3795L62.4293 57.3829ZM54.7692 39.4625C54.7692 37.6687 53.7647 35.9502 51.4687 35.9502C49.2478 35.9502 48.462 37.5253 48.462 39.4625H54.7692ZM51.0416 31.9356C56.2725 31.9356 60.8611 33.9412 60.8611 43.1901H48.4586C48.4586 46.1284 49.6783 47.3482 51.8274 47.3482C53.9799 47.3482 54.6974 45.6262 54.6974 45.6262H60.7893C60.7893 48.2775 57.1335 51.865 51.6156 51.7933C45.305 51.7933 42.2232 47.1329 42.2232 42.3291C42.2232 37.5252 44.9463 31.9356 51.0382 31.9356M34.8397 39.4625C34.8397 37.6687 33.8387 35.9502 31.5427 35.9502C29.3218 35.9502 28.5326 37.5253 28.5326 39.4625H34.8397ZM31.1122 31.9322C36.3465 31.9322 40.9317 33.9378 40.9317 43.1867H28.5292C28.5292 46.125 29.7489 47.3448 31.9014 47.3448C34.0505 47.3448 34.768 45.6227 34.768 45.6227H40.8599C40.8599 48.2741 37.2041 51.8616 31.6862 51.7898C25.3756 51.7898 22.2938 47.1295 22.2938 42.3257C22.2938 37.5218 25.0202 31.9322 31.1087 31.9322M14.1211 24.6205H20.7904V42.1138C20.7904 45.1205 19.4989 51.4311 10.25 51.4311C1.0045 51.4311 0 45.5544 0 42.2539V39.0286H6.45067V42.1822C6.45067 44.1194 7.74217 45.9097 10.1783 45.9097C12.6178 45.9097 14.1211 44.5499 14.1211 42.2539V24.6205Z" fill="black"/>
</svg>
