<svg width="82" height="82" viewBox="0 0 82 82" fill="none" xmlns="http://www.w3.org/2000/svg">
<path d="M41 5.125C21.187 5.125 5.125 21.187 5.125 41C5.125 60.813 21.187 76.8753 41 76.8753C60.813 76.8753 76.875 60.813 76.875 41C76.875 21.187 60.813 5.125 41 5.125Z" fill="url(#paint0_linear_4_1171)"/>
<path d="M40.9997 63.9154C28.3438 63.9154 18.0839 53.6557 18.0839 40.9997C18.0839 28.3438 28.3438 18.0839 40.9997 18.0839C53.6554 18.0839 63.9154 28.3438 63.9154 40.9997C63.9154 53.6557 53.6557 63.9154 40.9997 63.9154Z" fill="white"/>
<path d="M19.5591 40.9992H41.0005V19.5578C29.1589 19.5578 19.5591 29.1579 19.5591 40.9992ZM41.0005 40.9992V62.4409C52.8423 62.4409 62.442 52.8411 62.442 40.9992H41.0005Z" fill="url(#paint1_linear_4_1171)"/>
<path fill-rule="evenodd" clip-rule="evenodd" d="M21.124 18.8578C22.2263 18.1744 23.4005 18.3969 24.1601 19.1352C25.3273 20.2697 25.1556 21.5815 24.0453 22.9047L19.1862 28.6954L11.9429 22.6174L16.5506 17.1263C17.5043 15.9898 18.8377 15.0822 20.1047 16.1453C20.1281 16.1649 20.1507 16.1838 20.1726 16.2021C20.517 16.4894 20.6903 16.6339 21.1367 17.4481C21.2485 17.7553 21.3345 18.3122 21.124 18.8578ZM19.0688 18.5098C18.6027 18.1189 17.8781 18.1031 17.5575 18.4854L14.7899 21.7835L16.502 23.2201L19.2382 19.9592C19.5824 19.5493 19.5811 18.9397 19.0688 18.5098ZM19.541 25.7703L22.426 22.3322C22.8091 21.8757 22.7538 21.1643 22.1947 20.6955C21.7009 20.2809 20.9686 20.3949 20.6402 20.7863L17.7319 24.2523L19.541 25.7703Z" fill="white"/>
<path d="M44.6882 9.93266L42.2008 16.5259H40.1354L37.6477 9.93266V16.5259H35.7574V7.08316H38.5979L41.1681 13.8091L43.7383 7.08316H46.5788V16.5259H44.6882V9.93266Z" fill="white"/>
<path d="M64.0592 25.4937L67.6185 20.4545L66.051 18.5188L60.382 20.9527L64.0915 16.0999L62.6306 14.2956L56.7066 21.9157L58.4381 24.0367L64.0343 21.7337L64.0543 21.7588L60.6382 26.7538L62.3531 28.8883L71.0381 24.6783L69.577 22.874L64.0592 25.4937Z" fill="white"/>
<defs>
<linearGradient id="paint0_linear_4_1171" x1="16.0841" y1="16.084" x2="64.532" y2="67.3002" gradientUnits="userSpaceOnUse">
<stop offset="0.0273393" stop-color="#949AA0"/>
<stop offset="0.403335" stop-color="#1A1D1E"/>
<stop offset="1" stop-color="#040606"/>
</linearGradient>
<linearGradient id="paint1_linear_4_1171" x1="41.0005" y1="19.5578" x2="41.0005" y2="62.4409" gradientUnits="userSpaceOnUse">
<stop stop-color="#7CD1F4"/>
<stop offset="1" stop-color="#1274B9"/>
</linearGradient>
</defs>
</svg>
