<svg width="177" height="92" viewBox="0 0 177 92" fill="none" xmlns="http://www.w3.org/2000/svg">
<mask id="mask0_206_49" style="mask-type:alpha" maskUnits="userSpaceOnUse" x="1" y="56" width="176" height="36">
<path d="M177 56H1V92H177V56Z" fill="black"/>
</mask>
<g mask="url(#mask0_206_49)">
<path d="M103.77 -0.0400085V2.55999C100.823 2.64666 98.57 2.99332 97.01 3.59999C95.5367 4.11999 94.54 5.15999 94.02 6.71999C93.5 8.19332 93.24 10.5333 93.24 13.74V78.22C93.24 81.34 93.5 83.68 94.02 85.24C94.54 86.8 95.5367 87.84 97.01 88.36C98.57 88.88 100.823 89.2267 103.77 89.4V92C101.777 91.8267 99.2634 91.74 96.23 91.74C93.2834 91.6533 90.2934 91.61 87.26 91.61C83.88 91.61 80.7167 91.6533 77.77 91.74C74.8234 91.74 72.44 91.8267 70.62 92V89.4C73.5667 89.2267 75.7767 88.88 77.25 88.36C78.81 87.84 79.85 86.8 80.37 85.24C80.89 83.68 81.15 81.34 81.15 78.22V6.71999L81.67 7.10999L49.82 92.65H47.74L14.98 8.27998V76.92C14.98 80.04 15.24 82.51 15.76 84.33C16.3667 86.0633 17.4934 87.32 19.14 88.1C20.8734 88.7933 23.43 89.2267 26.81 89.4V92C25.25 91.8267 23.2134 91.74 20.7 91.74C18.1867 91.6533 15.8034 91.61 13.55 91.61C11.3834 91.61 9.17336 91.6533 6.92002 91.74C4.75336 91.74 2.93336 91.8267 1.46002 92V89.4C4.40669 89.2267 6.61669 88.7933 8.09002 88.1C9.65002 87.32 10.69 86.0633 11.21 84.33C11.73 82.51 11.99 80.04 11.99 76.92V13.74C11.99 10.5333 11.73 8.19332 11.21 6.71999C10.69 5.15999 9.65002 4.11999 8.09002 3.59999C6.61669 2.99332 4.40669 2.64666 1.46002 2.55999V-0.0400085C2.93336 0.046657 4.75336 0.133324 6.92002 0.21999C9.17336 0.306655 11.3834 0.349987 13.55 0.349987C15.4567 0.349987 17.4067 0.306655 19.4 0.21999C21.48 0.133324 23.2134 0.046657 24.6 -0.0400085L54.11 77.7L51.9 78.74L81.15 0.349987C82.19 0.349987 83.1867 0.349987 84.14 0.349987C85.18 0.349987 86.22 0.349987 87.26 0.349987C90.2934 0.349987 93.2834 0.306655 96.23 0.21999C99.2634 0.133324 101.777 0.046657 103.77 -0.0400085Z" fill="#E9EBFF"/>
<path d="M170.472 -0.0400085C170.126 3.25332 169.866 6.45999 169.692 9.57999C169.606 12.6133 169.562 14.9533 169.562 16.6C169.562 18.68 169.606 20.63 169.692 22.45C169.779 24.27 169.866 25.8733 169.952 27.26H166.962C166.356 21.1933 165.532 16.4267 164.492 12.96C163.452 9.40665 161.632 6.84999 159.032 5.28999C156.432 3.72999 152.402 2.94999 146.942 2.94999H138.752C135.806 2.94999 133.552 3.20998 131.992 3.72999C130.519 4.16332 129.522 5.15999 129.002 6.71999C128.482 8.19332 128.222 10.5333 128.222 13.74V78.22C128.222 81.34 128.526 83.68 129.132 85.24C129.826 86.8 131.126 87.84 133.032 88.36C134.939 88.88 137.712 89.2267 141.352 89.4V92C139.099 91.8267 136.239 91.74 132.772 91.74C129.306 91.6533 125.796 91.61 122.242 91.61C118.862 91.61 115.699 91.6533 112.752 91.74C109.806 91.74 107.422 91.8267 105.602 92V89.4C108.549 89.2267 110.759 88.88 112.232 88.36C113.792 87.84 114.832 86.8 115.352 85.24C115.872 83.68 116.132 81.34 116.132 78.22V13.74C116.132 10.5333 115.872 8.19332 115.352 6.71999C114.832 5.15999 113.792 4.11999 112.232 3.59999C110.759 2.99332 108.549 2.64666 105.602 2.55999V-0.0400085C108.809 0.046657 112.189 0.133324 115.742 0.21999C119.296 0.21999 122.806 0.263321 126.272 0.349987C129.739 0.349987 132.946 0.349987 135.892 0.349987C138.926 0.349987 141.396 0.349987 143.302 0.349987C147.289 0.349987 151.796 0.349987 156.822 0.349987C161.936 0.263321 166.486 0.133323 170.472 -0.0400085ZM150.322 45.72C150.322 45.72 150.322 46.1533 150.322 47.02C150.322 47.8867 150.322 48.32 150.322 48.32H124.322C124.322 48.32 124.322 47.8867 124.322 47.02C124.322 46.1533 124.322 45.72 124.322 45.72H150.322ZM152.792 28.56C152.446 33.5 152.272 37.27 152.272 39.87C152.359 42.47 152.402 44.8533 152.402 47.02C152.402 49.1867 152.446 51.57 152.532 54.17C152.619 56.77 152.836 60.54 153.182 65.48H150.192C149.846 62.7067 149.412 60.02 148.892 57.42C148.459 54.7333 147.419 52.5667 145.772 50.92C144.212 49.1867 141.526 48.32 137.712 48.32V45.72C140.572 45.72 142.739 45.1567 144.212 44.03C145.772 42.8167 146.899 41.3 147.592 39.48C148.286 37.66 148.762 35.7967 149.022 33.89C149.282 31.8967 149.542 30.12 149.802 28.56H152.792Z" fill="#E9EBFF"/>
</g>
<mask id="mask1_206_49" style="mask-type:alpha" maskUnits="userSpaceOnUse" x="0" y="0" width="177" height="42">
<path d="M177 0H0V42H177V0Z" fill="black"/>
</mask>
<g mask="url(#mask1_206_49)">
<path d="M103.77 -0.0400085V2.55999C100.823 2.64666 98.57 2.99332 97.01 3.59999C95.5367 4.11999 94.54 5.15999 94.02 6.71999C93.5 8.19332 93.24 10.5333 93.24 13.74V78.22C93.24 81.34 93.5 83.68 94.02 85.24C94.54 86.8 95.5367 87.84 97.01 88.36C98.57 88.88 100.823 89.2267 103.77 89.4V92C101.777 91.8267 99.2634 91.74 96.23 91.74C93.2834 91.6533 90.2934 91.61 87.26 91.61C83.88 91.61 80.7167 91.6533 77.77 91.74C74.8234 91.74 72.44 91.8267 70.62 92V89.4C73.5667 89.2267 75.7767 88.88 77.25 88.36C78.81 87.84 79.85 86.8 80.37 85.24C80.89 83.68 81.15 81.34 81.15 78.22V6.71999L81.67 7.10999L49.82 92.65H47.74L14.98 8.27998V76.92C14.98 80.04 15.24 82.51 15.76 84.33C16.3667 86.0633 17.4934 87.32 19.14 88.1C20.8734 88.7933 23.43 89.2267 26.81 89.4V92C25.25 91.8267 23.2134 91.74 20.7 91.74C18.1867 91.6533 15.8034 91.61 13.55 91.61C11.3834 91.61 9.17336 91.6533 6.92002 91.74C4.75336 91.74 2.93336 91.8267 1.46002 92V89.4C4.40669 89.2267 6.61669 88.7933 8.09002 88.1C9.65002 87.32 10.69 86.0633 11.21 84.33C11.73 82.51 11.99 80.04 11.99 76.92V13.74C11.99 10.5333 11.73 8.19332 11.21 6.71999C10.69 5.15999 9.65002 4.11999 8.09002 3.59999C6.61669 2.99332 4.40669 2.64666 1.46002 2.55999V-0.0400085C2.93336 0.046657 4.75336 0.133324 6.92002 0.21999C9.17336 0.306655 11.3834 0.349987 13.55 0.349987C15.4567 0.349987 17.4067 0.306655 19.4 0.21999C21.48 0.133324 23.2134 0.046657 24.6 -0.0400085L54.11 77.7L51.9 78.74L81.15 0.349987C82.19 0.349987 83.1867 0.349987 84.14 0.349987C85.18 0.349987 86.22 0.349987 87.26 0.349987C90.2934 0.349987 93.2834 0.306655 96.23 0.21999C99.2634 0.133324 101.777 0.046657 103.77 -0.0400085Z" fill="#E9EBFF"/>
<path d="M170.472 -0.0400085C170.126 3.25332 169.866 6.45999 169.692 9.57999C169.606 12.6133 169.562 14.9533 169.562 16.6C169.562 18.68 169.606 20.63 169.692 22.45C169.779 24.27 169.866 25.8733 169.952 27.26H166.962C166.356 21.1933 165.532 16.4267 164.492 12.96C163.452 9.40665 161.632 6.84999 159.032 5.28999C156.432 3.72999 152.402 2.94999 146.942 2.94999H138.752C135.806 2.94999 133.552 3.20998 131.992 3.72999C130.519 4.16332 129.522 5.15999 129.002 6.71999C128.482 8.19332 128.222 10.5333 128.222 13.74V78.22C128.222 81.34 128.526 83.68 129.132 85.24C129.826 86.8 131.126 87.84 133.032 88.36C134.939 88.88 137.712 89.2267 141.352 89.4V92C139.099 91.8267 136.239 91.74 132.772 91.74C129.306 91.6533 125.796 91.61 122.242 91.61C118.862 91.61 115.699 91.6533 112.752 91.74C109.806 91.74 107.422 91.8267 105.602 92V89.4C108.549 89.2267 110.759 88.88 112.232 88.36C113.792 87.84 114.832 86.8 115.352 85.24C115.872 83.68 116.132 81.34 116.132 78.22V13.74C116.132 10.5333 115.872 8.19332 115.352 6.71999C114.832 5.15999 113.792 4.11999 112.232 3.59999C110.759 2.99332 108.549 2.64666 105.602 2.55999V-0.0400085C108.809 0.046657 112.189 0.133324 115.742 0.21999C119.296 0.21999 122.806 0.263321 126.272 0.349987C129.739 0.349987 132.946 0.349987 135.892 0.349987C138.926 0.349987 141.396 0.349987 143.302 0.349987C147.289 0.349987 151.796 0.349987 156.822 0.349987C161.936 0.263321 166.486 0.133323 170.472 -0.0400085ZM150.322 45.72C150.322 45.72 150.322 46.1533 150.322 47.02C150.322 47.8867 150.322 48.32 150.322 48.32H124.322C124.322 48.32 124.322 47.8867 124.322 47.02C124.322 46.1533 124.322 45.72 124.322 45.72H150.322ZM152.792 28.56C152.446 33.5 152.272 37.27 152.272 39.87C152.359 42.47 152.402 44.8533 152.402 47.02C152.402 49.1867 152.446 51.57 152.532 54.17C152.619 56.77 152.836 60.54 153.182 65.48H150.192C149.846 62.7067 149.412 60.02 148.892 57.42C148.459 54.7333 147.419 52.5667 145.772 50.92C144.212 49.1867 141.526 48.32 137.712 48.32V45.72C140.572 45.72 142.739 45.1567 144.212 44.03C145.772 42.8167 146.899 41.3 147.592 39.48C148.286 37.66 148.762 35.7967 149.022 33.89C149.282 31.8967 149.542 30.12 149.802 28.56H152.792Z" fill="#E9EBFF"/>
</g>
<path d="M13.0319 45.1165H15.5745V52.8738H14.1506V46.0786L14.1797 46.0996L12.7849 52.8738H10.8186L9.39963 46.0843L9.42869 46.0681V52.8738H8V45.1165H10.5426L11.8454 52.101H11.7194L13.0319 45.1165ZM26.6213 53C26.1758 53 25.7593 52.9126 25.3718 52.737C24.9844 52.5614 24.6437 52.3041 24.3499 51.9635C24.0562 51.6236 23.8253 51.2045 23.6574 50.7069C23.4895 50.2052 23.4055 49.6323 23.4055 48.9875C23.4055 48.3385 23.4879 47.7673 23.6525 47.2721C23.8204 46.7745 24.0513 46.3577 24.3451 46.0203C24.6389 45.6837 24.9795 45.4297 25.367 45.2581C25.7544 45.0866 26.1725 45 26.6213 45C27.0669 45 27.4834 45.0866 27.8708 45.2581C28.2615 45.4297 28.6037 45.6837 28.8975 46.0203C29.1913 46.3577 29.4206 46.7745 29.5852 47.2721C29.7499 47.7673 29.8322 48.3385 29.8322 48.9875C29.8322 49.6323 29.7483 50.2052 29.5804 50.7069C29.4157 51.2045 29.1849 51.6236 28.8878 51.9635C28.5941 52.3041 28.2518 52.5614 27.8611 52.737C27.4737 52.9126 27.0604 53 26.6213 53ZM26.6213 51.69C26.9216 51.69 27.1993 51.601 27.4543 51.4222C27.7126 51.2433 27.9192 50.9561 28.0742 50.5596C28.2292 50.1599 28.3067 49.6356 28.3067 48.9875C28.3067 48.3345 28.2276 47.8126 28.0694 47.4193C27.9144 47.0269 27.7093 46.7445 27.4543 46.573C27.1993 46.3974 26.9216 46.31 26.6213 46.31C26.321 46.31 26.0418 46.3974 25.7835 46.573C25.5284 46.7445 25.3234 47.0269 25.1684 47.4193C25.0134 47.8126 24.9359 48.3345 24.9359 48.9875C24.9359 49.6388 25.0134 50.1631 25.1684 50.5596C25.3234 50.9561 25.5284 51.2433 25.7835 51.4222C26.0418 51.601 26.321 51.69 26.6213 51.69ZM41.884 46.3788H39.5255L40.126 45.6004V52.8738H38.6295V45.6004L39.2494 46.3788H36.8764V45.1165H41.884V46.3788ZM52.138 53C51.6924 53 51.2759 52.9126 50.8885 52.737C50.501 52.5614 50.1604 52.3041 49.8666 51.9635C49.5728 51.6236 49.3419 51.2045 49.174 50.7069C49.0062 50.2052 48.9222 49.6323 48.9222 48.9875C48.9222 48.3385 49.0045 47.7673 49.1692 47.2721C49.3371 46.7745 49.568 46.3577 49.8617 46.0203C50.1555 45.6837 50.4962 45.4297 50.8836 45.2581C51.2711 45.0866 51.6892 45 52.138 45C52.5835 45 53 45.0866 53.3874 45.2581C53.7781 45.4297 54.1204 45.6837 54.4142 46.0203C54.708 46.3577 54.9372 46.7745 55.1019 47.2721C55.2665 47.7673 55.3489 48.3385 55.3489 48.9875C55.3489 49.6323 55.2649 50.2052 55.097 50.7069C54.9324 51.2045 54.7015 51.6236 54.4045 51.9635C54.1107 52.3041 53.7684 52.5614 53.3778 52.737C52.9903 52.9126 52.577 53 52.138 53ZM52.138 51.69C52.4382 51.69 52.7159 51.601 52.971 51.4222C53.2293 51.2433 53.4359 50.9561 53.5909 50.5596C53.7458 50.1599 53.8233 49.6356 53.8233 48.9875C53.8233 48.3345 53.7442 47.8126 53.586 47.4193C53.431 47.0269 53.226 46.7445 52.971 46.573C52.7159 46.3974 52.4382 46.31 52.138 46.31C51.8377 46.31 51.5584 46.3974 51.3001 46.573C51.0451 46.7445 50.84 47.0269 50.685 47.4193C50.5301 47.8126 50.4526 48.3345 50.4526 48.9875C50.4526 49.6388 50.5301 50.1631 50.685 50.5596C50.84 50.9561 51.0451 51.2433 51.3001 51.4222C51.5584 51.601 51.8377 51.69 52.138 51.69ZM63.1228 52.8738V45.1165H66.0189C66.7679 45.1165 67.3265 45.3018 67.6946 45.6732C68.0659 46.0414 68.2516 46.573 68.2516 47.2672C68.2516 47.6669 68.1805 48.0092 68.0385 48.2924C67.8997 48.5732 67.7269 48.7908 67.5203 48.9446C67.3168 49.0991 67.1199 49.1849 66.9294 49.2027C67.1263 49.2164 67.312 49.2715 67.4864 49.3653C67.6639 49.4568 67.8092 49.6024 67.9222 49.8023C68.0353 50.0021 68.0917 50.2708 68.0917 50.6066C68.0917 50.8558 68.0917 51.1009 68.0917 51.3437C68.0917 51.5848 68.0917 51.8324 68.0917 52.0849C68.0917 52.2564 68.1031 52.4158 68.1256 52.5631C68.1515 52.7071 68.1886 52.8107 68.237 52.8738H66.7308C66.6889 52.8034 66.655 52.6982 66.6291 52.5582C66.6033 52.4142 66.5904 52.2564 66.5904 52.0849C66.5904 51.8607 66.5904 51.6463 66.5904 51.4432C66.5904 51.2361 66.5904 51.0208 66.5904 50.7967C66.5904 50.4908 66.5178 50.2562 66.3725 50.0911C66.2272 49.9228 65.9947 49.8387 65.6751 49.8387H64.1931L64.5951 49.3184V52.8738H63.1228ZM64.5951 49.1711L64.1931 48.5764H65.6944C65.8882 48.5764 66.0609 48.5295 66.2126 48.4348C66.3644 48.3401 66.4839 48.205 66.571 48.0294C66.6614 47.8547 66.7066 47.6491 66.7066 47.4145C66.7066 47.0852 66.6146 46.8287 66.4306 46.6466C66.2497 46.4645 65.9947 46.3731 65.6654 46.3731H64.1592L64.5951 45.8423V49.1711ZM86.1048 46.3788L86.7828 45.6004V48.8661L86.3178 48.4559H89.2386V49.7181H86.3178L86.7828 49.2763V52.8738H85.2815V45.1165H89.6692V46.3788H86.1048ZM100.04 53C99.5944 53 99.1779 52.9126 98.7905 52.737C98.403 52.5614 98.0625 52.3041 97.769 51.9635C97.4754 51.6236 97.2444 51.2045 97.076 50.7069C96.9084 50.2052 96.8242 49.6323 96.8242 48.9875C96.8242 48.3385 96.9069 47.7673 97.0716 47.2721C97.2392 46.7745 97.4702 46.3577 97.7638 46.0203C98.0581 45.6837 98.3986 45.4297 98.786 45.2581C99.1734 45.0866 99.5914 45 100.04 45C100.486 45 100.902 45.0866 101.289 45.2581C101.681 45.4297 102.023 45.6837 102.316 46.0203C102.61 46.3577 102.839 46.7745 103.004 47.2721C103.169 47.7673 103.251 48.3385 103.251 48.9875C103.251 49.6323 103.167 50.2052 102.999 50.7069C102.835 51.2045 102.604 51.6236 102.307 51.9635C102.013 52.3041 101.671 52.5614 101.28 52.737C100.892 52.9126 100.48 53 100.04 53ZM100.04 51.69C100.34 51.69 100.618 51.601 100.873 51.4222C101.132 51.2433 101.338 50.9561 101.493 50.5596C101.648 50.1599 101.725 49.6356 101.725 48.9875C101.725 48.3345 101.646 47.8126 101.488 47.4193C101.333 47.0269 101.129 46.7445 100.873 46.573C100.618 46.3974 100.34 46.31 100.04 46.31C99.7397 46.31 99.461 46.3974 99.2025 46.573C98.9477 46.7445 98.742 47.0269 98.5871 47.4193C98.4321 47.8126 98.3546 48.3345 98.3546 48.9875C98.3546 49.6388 98.4321 50.1631 98.5871 50.5596C98.742 50.9561 98.9477 51.2433 99.2025 51.4222C99.461 51.601 99.7397 51.69 100.04 51.69ZM111.025 52.8738V45.1165H113.922C114.67 45.1165 115.229 45.3018 115.597 45.6732C115.968 46.0414 116.154 46.573 116.154 47.2672C116.154 47.6669 116.083 48.0092 115.941 48.2924C115.802 48.5732 115.629 48.7908 115.423 48.9446C115.219 49.0991 115.022 49.1849 114.832 49.2027C115.029 49.2164 115.214 49.2715 115.389 49.3653C115.566 49.4568 115.711 49.6024 115.824 49.8023C115.938 50.0021 115.994 50.2708 115.994 50.6066C115.994 50.8558 115.994 51.1009 115.994 51.3437C115.994 51.5848 115.994 51.8324 115.994 52.0849C115.994 52.2564 116.006 52.4158 116.028 52.5631C116.054 52.7071 116.091 52.8107 116.14 52.8738H114.633C114.591 52.8034 114.557 52.6982 114.532 52.5582C114.506 52.4142 114.493 52.2564 114.493 52.0849C114.493 51.8607 114.493 51.6463 114.493 51.4432C114.493 51.2361 114.493 51.0208 114.493 50.7967C114.493 50.4908 114.42 50.2562 114.275 50.0911C114.129 49.9228 113.897 49.8387 113.577 49.8387H112.095L112.498 49.3184V52.8738H111.025ZM112.498 49.1711L112.095 48.5764H113.597C113.79 48.5764 113.963 48.5295 114.115 48.4348C114.267 48.3401 114.386 48.205 114.474 48.0294C114.564 47.8547 114.609 47.6491 114.609 47.4145C114.609 47.0852 114.517 46.8287 114.333 46.6466C114.152 46.4645 113.897 46.3731 113.568 46.3731H112.062L112.498 45.8423V49.1711ZM128.496 46.3788H126.138L126.738 45.6004V52.8738H125.242V45.6004L125.861 46.3788H123.488V45.1165H128.496V46.3788ZM141.548 50.0701C141.548 51.0524 141.309 51.7871 140.832 52.2742C140.353 52.7581 139.7 53 138.87 53C138.037 53 137.382 52.7581 136.903 52.2742C136.429 51.7871 136.192 51.0524 136.192 50.0701C136.192 49.9374 136.192 49.795 136.192 49.6445C136.192 49.494 136.192 49.3362 136.192 49.1711V45.1165H137.698V49.4025C137.698 49.5361 137.698 49.6599 137.698 49.7756C137.698 49.8913 137.698 49.9989 137.698 50.0968C137.698 50.6438 137.79 51.0467 137.974 51.3065C138.158 51.5622 138.457 51.69 138.87 51.69C139.28 51.69 139.578 51.5622 139.766 51.3065C139.953 51.0467 140.047 50.6438 140.047 50.0968V45.1165H141.548V50.0701ZM150.985 52.8738H149.518V45.1165H151.852L154.244 52.2847L153.993 52.3527V45.1165H155.455V52.8738H153.106L150.714 45.7258L150.985 45.6578V52.8738ZM163.068 52.8738L164.85 45.1052H167.227L169 52.8738H167.46L166.036 46.0996H166.046L164.608 52.8738H163.068ZM164.346 51.075V49.8023H167.736V51.075H164.346Z" fill="#E9EBFF"/>
</svg>
