<svg width="82" height="82" viewBox="0 0 82 82" fill="none" xmlns="http://www.w3.org/2000/svg">
<path d="M67.814 26.814C64.4247 26.814 61.3155 28.003 58.876 29.9847C56.4365 28.003 53.3273 26.814 49.938 26.814C46.5487 26.814 43.4395 28.003 41 29.9847C38.5605 28.003 35.4513 26.814 32.062 26.814C28.6727 26.814 25.5635 28.003 23.124 29.9847C20.6845 28.003 17.5753 26.814 14.186 26.814C6.35158 26.814 0 33.1656 0 41C0 48.8344 6.35158 55.186 14.186 55.186C17.5753 55.186 20.6845 53.997 23.124 52.0153C25.5635 53.997 28.6727 55.186 32.062 55.186C35.4513 55.186 38.5605 53.997 41 52.0153C43.4395 53.997 46.5487 55.186 49.938 55.186C53.3273 55.186 56.4365 53.997 58.876 52.0153C61.3155 53.997 64.4247 55.186 67.814 55.186C75.6484 55.186 82 48.8344 82 41C82 33.1656 75.6484 26.814 67.814 26.814ZM58.876 47.3755C57.5913 45.5783 56.8328 43.378 56.8328 41C56.8328 38.622 57.5913 36.4217 58.876 34.6245C60.1607 36.4217 60.9192 38.622 60.9192 41C60.9192 43.378 60.1607 45.5783 58.876 47.3755ZM41 47.3755C39.7153 45.5783 38.9568 43.378 38.9568 41C38.9568 38.622 39.7153 36.4217 41 34.6245C42.2847 36.4217 43.0432 38.622 43.0432 41C43.0432 43.378 42.2847 45.5783 41 47.3755ZM23.124 47.3755C21.8393 45.5783 21.0808 43.378 21.0808 41C21.0808 38.622 21.8393 36.4217 23.124 34.6245C24.4087 36.4217 25.1672 38.622 25.1672 41C25.1672 43.378 24.4087 45.5783 23.124 47.3755ZM3.20483 41C3.20483 34.9354 8.12142 30.0188 14.186 30.0188C16.7007 30.0188 19.0172 30.8662 20.869 32.2909C18.9967 34.6928 17.876 37.7166 17.876 41C17.876 44.2834 18.9967 47.3072 20.869 49.7091C19.0172 51.1304 16.7007 51.9812 14.186 51.9812C8.12142 51.9812 3.20483 47.0646 3.20483 41ZM25.379 49.7091C27.2513 47.3072 28.372 44.2834 28.372 41C28.372 37.7166 27.2513 34.6928 25.379 32.2909C27.2308 30.8696 29.5473 30.0188 32.062 30.0188C34.5767 30.0188 36.8932 30.8662 38.745 32.2909C36.8693 34.6962 35.752 37.7166 35.752 41C35.752 44.2834 36.8727 47.3072 38.745 49.7091C36.8932 51.1304 34.5767 51.9812 32.062 51.9812C29.5473 51.9812 27.2308 51.1338 25.379 49.7091ZM43.255 49.7091C45.1307 47.3037 46.248 44.2834 46.248 41C46.248 37.7166 45.1273 34.6928 43.255 32.2875C45.1068 30.8662 47.4233 30.0154 49.938 30.0154C52.4527 30.0154 54.7692 30.8627 56.621 32.2875C54.7453 34.6928 53.628 37.7132 53.628 40.9966C53.628 44.28 54.7487 47.3037 56.621 49.7057C54.7692 51.127 52.4527 51.9777 49.938 51.9777C47.4233 51.9812 45.1068 51.1338 43.255 49.7091ZM67.814 51.9812C65.2993 51.9812 62.9828 51.1338 61.131 49.7091C63.0033 47.3037 64.124 44.2834 64.124 41C64.124 37.7166 63.0033 34.6928 61.131 32.2909C62.9828 30.8696 65.2993 30.0188 67.814 30.0188C73.8786 30.0188 78.7952 34.9354 78.7952 41C78.7952 47.0646 73.8786 51.9812 67.814 51.9812Z" fill="black"/>
</svg>
