<svg width="82" height="82" viewBox="0 0 82 82" fill="none" xmlns="http://www.w3.org/2000/svg">
<path d="M42 39.9114L43.5246 39L63 52L42 39.9114Z" fill="black"/>
<path d="M40.8788 39L40 38.2041L41 14L40.8788 39Z" fill="black"/>
<path d="M39.6752 39L33 45L41 39.8807L39.6752 39Z" fill="black"/>
<path d="M41.5 7C22.9943 7 8 21.9943 8 40.5C8 59.0057 22.9943 74 41.5 74C60.0057 74 75 59.0057 75 40.5C75 21.9943 60.0057 7 41.5 7ZM41.5 72.1494C33.8605 72.1494 26.6955 69.5871 21.3336 64.937C16.1615 60.3817 12.1282 53.1218 11.1317 45.4348C13.5042 60.097 26.1735 71.2479 41.5 71.2479C58.4873 71.2479 72.2479 57.4873 72.2479 40.5C72.2479 33.4299 69.6381 26.5496 65.6048 21.3775C69.6381 24.5092 73.1494 33.3824 73.1494 40.5C73.1969 58.0092 59.0092 72.1494 41.5 72.1494ZM38.6055 38.08L41.3102 10.3215H41.5H41.5475L41.8322 39.551L46.4823 36.7514L41.8322 10.3215C58.3449 10.4639 71.6785 23.9398 71.6785 40.4525C71.6785 45.767 70.3024 50.7493 67.8824 55.1147L46.9568 37.6055L44.9639 38.7443L67.7401 55.3994C67.6926 55.4943 67.6452 55.5892 67.5503 55.6841L41.9271 40.9271V46.0992L67.3605 55.9214C62.0935 64.6997 52.461 70.5836 41.5 70.5836C30.539 70.5836 20.9065 64.6997 15.6395 55.9688L41.0729 46.0992V40.8796L15.4497 55.5892C15.4023 55.4943 15.3548 55.3994 15.2599 55.3045L37.9412 38.6969L35.9483 37.5581L15.0701 54.9724C12.6976 50.6544 11.3215 45.7195 11.3215 40.4051C11.3215 23.9873 24.4653 10.6537 40.7882 10.2741L36.7075 36.9887L38.6055 38.08ZM41.5 8.80312C24.0382 8.80312 9.85057 22.9908 9.85057 40.4525C9.85057 47.5701 12.4129 54.2606 16.3513 60.097C17.6799 62.6119 19.1034 64.1303 21.0489 66.1707C13.5042 60.1445 8.61686 50.8442 8.61686 40.4525C8.61686 22.279 23.3265 7.56941 41.5 7.56941C59.6735 7.56941 74.6678 22.9433 74.0984 40.4525C73.6714 23.3704 58.7245 8.80312 41.5 8.80312Z" fill="black"/>
</svg>
