<svg width="82" height="82" viewBox="0 0 82 82" fill="none" xmlns="http://www.w3.org/2000/svg">
<path d="M41.1262 25.6723C18.6708 25.6723 0.630768 32.4215 0.630768 40.8738C0.630768 49.2631 18.7969 56.0754 41.1262 56.0754C63.4554 56.0754 81.6215 49.2631 81.6215 40.8738C81.6846 32.5477 63.4554 25.6723 41.1262 25.6723ZM41.1262 54.7508C19.68 54.7508 2.33384 48.5692 2.33384 40.8738C2.33384 33.2415 19.7431 26.9969 41.1262 26.9969C62.5723 26.9969 79.9185 33.1785 79.9185 40.8738C79.9815 48.5692 62.5723 54.7508 41.1262 54.7508ZM57.0846 43.9646V44.0908C57.0846 44.1538 57.2108 44.2169 57.2738 44.28C57.2738 44.28 57.3369 44.3431 57.2738 44.4062C57.0215 44.9738 56.7692 45.2892 56.4538 45.7308C56.1385 46.1723 55.8231 46.4877 55.4446 46.8031C54.8769 47.3077 53.9938 47.8123 53.3 47.4969C52.9846 47.3077 52.8585 46.9292 52.8585 46.5508C52.8585 45.6046 53.3 44.5954 54.12 43.5861C55.0662 42.3877 56.2015 41.7569 56.8954 42.1354C57.6523 42.4508 57.4631 43.3338 57.0846 43.9646ZM37.0262 37.6569C36.9631 37.2785 37.0892 36.8369 37.4677 36.5215C37.6569 36.3323 37.9092 36.3323 38.0985 36.4585C38.2877 36.5846 38.1615 36.9631 38.0354 37.2785C37.8462 37.5938 37.5308 37.8461 37.2154 37.8461C37.0892 37.7831 37.0262 37.7831 37.0262 37.6569ZM41.1262 28.1954C20.4369 28.1954 3.65846 33.9354 3.65846 40.9369C3.65846 47.8754 20.4369 53.6154 41.1262 53.6154C61.8154 53.6154 78.5938 47.8754 78.5938 40.8738C78.5938 33.8723 61.8154 28.1954 41.1262 28.1954ZM21.8877 49.2631C19.68 49.2631 17.7246 47.9385 17.4723 45.5415C17.3462 44.2169 17.7246 43.0815 18.4815 42.0723C19.1123 41.1892 20.2477 40.4954 21.1938 40.3062C21.5092 40.2431 21.8877 40.3061 22.0769 40.4954C22.3292 40.8108 22.2662 41.1262 22.0138 41.3154C21.32 41.6938 20.4369 42.3246 19.9954 43.1446C19.6169 43.8385 19.5538 44.7215 20.1215 45.4785C21.0046 46.8031 23.4646 46.8662 25.7985 44.7215C26.3662 44.2169 26.8708 43.7123 27.3754 43.0815C28.3846 41.9462 28.7 41.5046 30.0877 39.6123V39.5492C30.0877 39.5492 30.0877 39.5492 30.0246 39.4861C29.1415 39.4861 28.3215 39.8015 27.5646 40.3692C27.3754 40.5585 27.06 40.4954 26.8708 40.3062C26.7446 40.0538 26.8077 39.7385 27.06 39.6123C28.2585 38.7292 29.6462 38.6031 30.9708 38.3508C30.9708 38.3508 31.0969 38.3508 31.16 38.2246C31.7277 37.5308 32.1692 36.8369 32.7369 36.1431C33.3677 35.3861 34.1246 34.7554 34.6923 34.1877C35.5123 33.4938 36.08 33.2415 36.5846 32.9261C36.7108 32.8631 36.5846 32.7369 36.5215 32.7369C33.4938 32.1692 30.34 31.4123 27.3754 32.5477C25.2938 33.3046 24.4108 34.9446 24.8523 36.08C25.1677 36.8369 26.1769 36.9631 27.1862 36.5215C28.0062 36.1431 28.7 35.5123 29.2677 34.6923C29.5831 34.2508 30.1508 34.5661 29.8354 35.3231C28.9523 37.4046 27.2492 39.0446 25.2308 39.1077C23.4646 39.1708 22.3923 37.9092 22.3923 36.3323C22.3923 33.2415 25.8615 31.16 29.52 30.8446C33.9354 30.4661 38.0985 31.6646 42.4508 32.1692C45.7938 32.5477 49.0108 32.6108 52.3538 31.7908C52.7323 31.7277 53.0477 31.98 52.9846 32.3585C52.9215 32.9261 52.48 33.4938 51.4077 34.1246C50.1462 34.8185 48.8215 35.0077 47.4338 35.0077C44.0908 35.0077 41 33.7462 37.7831 33.0523C37.7831 33.1785 37.8462 33.3677 37.72 33.4308C35.9538 34.7554 34.3138 36.08 33.2415 37.9092C33.1785 37.9723 33.2415 37.9723 33.3046 37.9723C34.2508 37.9092 35.0708 37.9092 35.9538 37.8461C36.08 37.8461 36.08 37.7831 36.08 37.6569C36.0169 37.0261 36.2062 36.2692 36.7738 35.7646C37.3415 35.26 38.0985 35.1969 38.54 35.5754C39.1077 36.0169 39.0446 36.7738 38.7292 37.3415C38.4138 37.9092 37.9092 38.2246 37.4677 38.4138C37.4677 38.4138 37.3415 38.4138 37.4046 38.54C37.4046 38.6661 38.0985 39.0446 38.1615 39.1708C38.2246 39.2338 38.1615 39.4231 38.0985 39.4861C38.0354 39.5492 37.9092 39.6123 37.7831 39.6123C37.6569 39.6123 37.5938 39.5492 37.4677 39.4861C37.1523 39.2969 36.7738 39.0446 36.5846 38.7292C36.5215 38.6031 36.4585 38.6031 36.2692 38.6031C35.3231 38.6662 33.8723 38.7923 32.8631 38.9185C32.6108 38.9185 32.6108 38.9815 32.5477 39.1077C30.9708 41.6938 29.2677 44.5323 27.3754 46.4246C25.3569 48.6954 23.6538 49.2631 21.8877 49.2631ZM64.9692 36.5215C64.6538 37.0262 58.7246 46.1092 58.3462 46.9923C58.22 47.3077 58.22 47.4969 58.3462 47.6861C58.6615 48.1277 59.3554 47.8754 59.7969 47.56C61.0585 46.6769 61.9415 45.6046 62.9508 44.6585C63.0138 44.5954 63.0769 44.5954 63.14 44.6585C63.2662 44.7846 63.5185 44.9738 63.6446 45.1C63.7077 45.1631 63.7077 45.2262 63.6446 45.2892C62.6985 46.4877 61.6262 47.56 60.6169 48.38C59.04 49.5785 57.4631 49.8938 56.6431 49.1369C56.3277 48.8215 56.2015 48.4431 56.2015 48.0646C56.2015 47.8754 56.0754 47.8754 56.0123 47.9385C55.0662 48.8846 53.4262 49.8938 51.9754 49.1369C50.7138 48.5062 50.4615 47.0554 50.7138 45.7938C50.7138 45.7938 50.7138 45.6046 50.5246 45.6677C50.2723 45.8569 49.9569 46.0462 49.5154 46.2354C49.0108 46.4246 48.7585 46.4877 48.2538 46.4877C47.6231 46.4877 47.1185 46.2354 46.74 45.6046C46.5508 45.2892 46.4246 44.7846 46.4246 44.4062C46.4246 44.3431 46.3615 44.28 46.2985 44.4062C45.2892 45.92 44.3431 47.4338 43.3338 49.0108C43.2708 49.0738 43.2077 49.1369 43.1446 49.1369C42.5138 49.1369 41.82 49.1369 41.1892 49.1369C41.0631 49.1369 41 49.0738 41.0631 48.9477C41.4415 48.2538 43.3338 45.4785 44.6585 43.0815C45.0369 42.4508 44.9738 42.0723 44.7215 41.9461C44.4692 41.7569 43.9015 42.0092 43.3969 42.3877C42.1354 43.3338 41.0631 44.8477 40.4954 45.5415C40.18 45.92 39.8646 46.5508 39.0446 47.4338C37.72 48.8846 35.9538 49.7046 34.3138 49.1369C33.3677 48.8215 32.7369 48.0646 32.4846 47.1815C32.4215 46.9923 32.3585 46.9292 32.2323 47.0554C31.98 47.3708 31.4123 47.8754 30.9077 48.1908C30.8446 48.2538 30.7185 48.3169 30.5923 48.2538C30.4662 48.1908 30.1508 47.7492 30.0877 47.56C30.0246 47.4338 30.0877 47.3708 30.1508 47.3077C30.8446 46.74 31.16 46.3615 31.4754 46.0462C31.6646 45.7938 31.8538 45.4785 32.0431 44.9738C32.4215 43.9646 33.3677 42.0723 35.1969 41.0631C35.8908 40.6846 36.5846 40.4323 37.4046 40.3062C37.72 40.2431 38.0354 40.3062 38.0985 40.5585C38.1615 40.6846 38.2246 40.9369 38.2877 41.0631C38.3508 41.1892 38.2877 41.2523 38.1615 41.3154C37.0892 41.7569 36.0169 42.3877 35.26 43.3969C34.3769 44.5323 34.1877 45.92 34.7554 46.6769C35.1969 47.2446 35.8277 47.3708 36.5215 47.1185C37.5308 46.8031 38.3508 45.92 38.7923 44.8477C39.2338 43.7123 39.36 42.4508 38.9815 41.2523C38.9185 41.0631 38.9815 40.8738 39.1077 40.8108C39.36 40.6215 39.7385 40.4323 39.8015 40.3692C40.0538 40.2431 40.3062 40.3061 40.4323 40.4954C40.8108 41 41 41.7569 41 42.5769C41 42.7661 41.0631 42.7661 41.1892 42.64C41.82 41.9461 42.4508 41.2523 43.0815 40.6846C43.7123 40.18 44.5323 39.8015 45.2262 39.8015C46.1723 39.8015 46.6769 40.4954 46.6138 41.6308C46.6138 41.7569 46.74 41.7569 46.8031 41.6938C47.1185 41.2523 47.3077 41.0631 47.6231 40.8108C48.3169 40.2431 48.9477 39.9908 49.7046 40.0538C50.5877 40.1169 51.2815 40.9369 51.1554 41.82C51.0923 42.3877 50.7138 42.9554 50.2092 43.2077C49.7677 43.46 49.2 43.3969 48.8215 43.0815C48.5062 42.8292 48.4431 42.3877 48.5062 42.0092C48.5062 41.9461 48.4431 41.82 48.3169 41.9461C47.4338 42.8292 47.3708 43.9646 47.9385 44.5323C48.5692 45.1 49.4523 44.7215 50.1462 44.28C51.4077 43.46 52.3538 42.3877 53.4262 41.5046C54.1831 40.9369 55.0031 40.4323 55.9492 40.3062C56.4538 40.2431 56.9585 40.2431 57.4631 40.4954C58.1569 40.7477 58.5354 41.3154 58.5985 41.82C58.5985 41.9462 58.7246 42.0092 58.7877 41.8831C59.2923 41.0631 62.1938 36.7738 62.4462 36.3323C62.5092 36.2061 62.5723 36.1431 62.7615 36.1431H64.78C64.9692 36.3954 64.9692 36.4585 64.9692 36.5215Z" fill="black"/>
</svg>
